<svg viewBox="0 0 94 75" fill="none" xmlns="http://www.w3.org/2000/svg">
<path d="M73.82 41.72C71.84 32.34 61.92 26.95 52.97 30.33C50.02 23.56 43.26 18.84 35.41 18.85C25.76 18.87 17.8 26.05 16.52 35.35C8.42001 34.05 1.11001 40.3 1.12001 48.48C1.14001 55.81 7.09001 61.74 14.42 61.72L76.06 61.58C81.62 61.57 86.11 57.05 86.1 51.5C86.09 45.13 80.18 40.28 73.82 41.72Z" fill="#0089DC"/>
<path d="M73.53 41.36C71.55 31.98 61.63 26.59 52.68 29.97C49.73 23.2 42.97 18.48 35.12 18.49C25.47 18.51 17.51 25.69 16.24 34.99C8.13998 33.69 0.829976 39.94 0.839976 48.12C0.859976 55.45 6.80998 61.38 14.14 61.36L75.78 61.22C81.34 61.21 85.83 56.69 85.82 51.14C85.81 44.77 79.9 39.92 73.54 41.36H73.53Z" fill="url(#paint0_linear_436_3)"/>
<path d="M52.68 29.97C50.99 26.2 48.05 23.04 44.47 21.02C40.88 19.02 36.63 18.23 32.57 18.82C28.5 19.36 24.65 21.3 21.77 24.22C18.86 27.1 16.93 30.95 16.35 35.01L16.33 35.14L16.2 35.12C14.32 34.82 12.38 34.91 10.55 35.42C8.72002 35.93 7.00002 36.84 5.54002 38.07C4.09002 39.3 2.90002 40.84 2.08002 42.57C1.26002 44.3 0.840018 46.21 0.820018 48.12C0.760018 44.28 2.46002 40.43 5.42002 37.93C6.89002 36.67 8.63002 35.74 10.49 35.21C12.35 34.68 14.32 34.57 16.24 34.87L16.1 34.98C16.66 30.86 18.6 26.94 21.54 23.99C24.47 21.02 28.41 19.09 32.53 18.57C36.65 18 40.94 18.83 44.55 20.87C48.17 22.91 51.04 26.19 52.67 29.98L52.68 29.97Z" fill="#0CE1FF"/>
<path d="M62.18 47.36C60.16 41.38 54.51 37.07 47.85 37.07C39.42 37.07 32.53 43.99 32.73 52.56C27.26 52.37 22.92 56.74 22.92 62.03C22.92 67.32 27.17 71.51 32.4 71.51H64.28C71 71.51 76.45 66.06 76.45 59.34C76.45 51.8 69.66 46.06 62.2 47.36H62.18Z" fill="#0098DC"/>
<path d="M61.93 47.09C59.91 41.11 54.26 36.8 47.6 36.8C39.17 36.8 32.28 43.72 32.48 52.29C27.01 52.1 22.67 56.47 22.67 61.76C22.67 67 26.92 71.24 32.15 71.24H64.03C70.75 71.24 76.2 65.79 76.2 59.07C76.2 51.53 69.41 45.79 61.95 47.09H61.93Z" fill="url(#paint1_linear_436_3)"/>
<path d="M59.12 42.13C57.08 39.79 54.32 38.12 51.33 37.37C49.84 36.99 48.28 36.84 46.75 36.96C45.22 37.04 43.69 37.36 42.26 37.93C39.37 39.01 36.91 41.06 35.17 43.58C34.32 44.86 33.66 46.26 33.2 47.73C32.78 49.21 32.59 50.75 32.59 52.29V52.41H32.47C30.28 52.32 28.07 53.02 26.34 54.37C24.6 55.7 23.33 57.66 22.86 59.83C23.28 57.65 24.49 55.63 26.24 54.24C27.99 52.84 30.24 52.11 32.48 52.18L32.36 52.29C32.35 50.73 32.53 49.17 32.94 47.65C33.39 46.15 34.05 44.72 34.91 43.41C36.65 40.81 39.23 38.76 42.16 37.68C43.62 37.11 45.17 36.8 46.73 36.73C48.29 36.63 49.86 36.79 51.37 37.19C54.4 37.96 57.13 39.75 59.11 42.13H59.12Z" fill="#0CF1FF"/>
<defs>
<linearGradient id="paint0_linear_436_3" x1="17.11" y1="26.02" x2="57.41" y2="63.39" gradientUnits="userSpaceOnUse">
<stop stop-color="#00B9F7"/>
<stop offset="1" stop-color="#0099DB"/>
</linearGradient>
<linearGradient id="paint1_linear_436_3" x1="36.5133" y1="44.863" x2="61.9561" y2="74.5108" gradientUnits="userSpaceOnUse">
<stop stop-color="#00CDF9"/>
<stop offset="1" stop-color="#00B4EB"/>
</linearGradient>
</defs>
</svg>
