<svg width="907" height="564" viewBox="0 0 907 564" fill="none" xmlns="http://www.w3.org/2000/svg">
<path d="M775.668 247.558C754.654 148.025 649.369 90.8313 554.38 126.697C523.071 54.9657 451.324 4.77502 368.01 4.98724C265.591 5.19947 181.109 81.3874 167.63 180.071C81.5553 166.17 3.97176 232.596 4.18403 319.395C4.3963 397.175 67.5457 460.099 145.342 459.886L799.548 458.401C858.558 458.295 906.212 410.332 906.106 351.441C906 283.848 843.275 232.384 775.774 247.664L775.668 247.558Z" fill="#0089DC"/>
<path d="M772.484 243.738C751.47 144.205 646.185 87.0112 551.196 122.877C519.886 51.1456 448.246 0.954952 364.825 1.16717C262.407 1.3794 177.924 77.5673 164.339 176.251C78.3712 162.35 0.787679 228.776 0.999946 315.575C1.21221 393.355 64.3616 456.279 142.157 456.066L796.364 454.581C855.374 454.475 903.028 406.512 902.922 347.621C902.816 280.028 840.091 228.564 772.59 243.844L772.484 243.738Z" fill="url(#paint0_linear_427_454)"/>
<path d="M551.302 122.983C533.366 82.9789 502.162 49.4477 464.167 28.0132C425.959 6.68482 380.958 -1.69798 337.868 4.56259C294.671 10.2926 253.81 30.8782 223.244 61.8627C192.359 92.4228 171.875 133.276 165.719 176.357L165.507 177.736L164.127 177.524C144.174 174.341 123.584 175.296 104.162 180.707C84.7395 186.119 66.4845 195.775 50.9891 208.827C35.5997 221.879 22.9698 238.22 14.2669 256.577C5.7762 274.934 1.21246 295.202 1.00019 315.575C0.363394 274.828 18.4061 233.975 49.8216 207.447C65.4232 194.077 83.8904 184.209 103.631 178.585C123.372 172.961 144.28 171.794 164.658 174.977L163.172 176.145C169.116 132.427 189.705 90.8311 220.909 59.5283C251.9 28.0132 293.716 7.4276 337.443 1.90981C381.17 -4.13854 426.702 4.6687 465.016 26.3154C503.436 47.9621 533.896 82.7666 551.196 122.983H551.302Z" fill="#0CE1FF"/>
<path d="M666.138 306.874C644.699 243.419 584.734 197.685 514.049 197.685C424.579 197.685 351.453 271.114 353.575 362.052C295.52 360.036 249.458 406.406 249.458 462.539C249.458 518.672 294.565 563.133 350.073 563.133H688.426C759.748 563.133 817.591 505.302 817.591 433.995C817.591 353.987 745.526 293.079 666.351 306.874H666.138Z" fill="#0098DC"/>
<path d="M663.485 304.009C642.046 240.554 582.081 194.82 511.396 194.82C421.925 194.82 348.799 268.249 350.922 359.187C292.867 357.171 246.805 403.541 246.805 459.674C246.805 515.807 291.912 560.268 347.42 560.268H685.773C757.095 560.268 814.938 502.437 814.938 431.13C814.938 351.122 742.873 290.214 663.697 304.009H663.485Z" fill="url(#paint1_linear_427_454)"/>
<path d="M633.555 251.378C611.904 226.548 582.611 208.827 550.878 200.869C535.064 196.837 518.507 195.245 502.268 196.518C486.03 197.367 469.792 200.763 454.615 206.811C423.942 218.271 397.833 240.024 379.366 266.764C370.345 280.346 363.34 295.202 358.458 310.8C354 326.505 351.983 342.846 351.983 359.187V360.46H350.71C327.467 359.505 304.011 366.933 285.65 381.258C267.183 395.371 253.704 416.169 248.716 439.195C253.173 416.062 266.015 394.628 284.589 379.879C303.162 365.023 327.042 357.277 350.816 358.02L349.542 359.187C349.436 342.633 351.347 326.08 355.698 309.951C360.474 294.034 367.479 278.861 376.606 264.96C395.074 237.371 422.456 215.618 453.553 204.158C469.049 198.11 485.499 194.82 502.056 194.078C518.613 193.017 535.276 194.714 551.302 198.959C583.46 207.129 612.435 226.123 633.449 251.378H633.555Z" fill="#0CF1FF"/>
<defs>
<linearGradient id="paint0_linear_427_454" x1="173.679" y1="81.069" x2="601.421" y2="477.696" gradientUnits="userSpaceOnUse">
<stop stop-color="#00B9F7"/>
<stop offset="1" stop-color="#0099DB"/>
</linearGradient>
<linearGradient id="paint1_linear_427_454" x1="393.552" y1="280.4" x2="663.521" y2="595.052" gradientUnits="userSpaceOnUse">
<stop stop-color="#00CDF9"/>
<stop offset="1" stop-color="#00B4EB"/>
</linearGradient>
</defs>
</svg>
