<svg width="30" height="30" viewBox="0 0 372 251" fill="none" xmlns="http://www.w3.org/2000/svg">
<path d="M62.513 93.087C62.504 92.562 62.493 92.038 62.493 91.512C62.493 41.357 103.152 0.697998 153.307 0.697998C196.529 0.697998 232.695 30.894 241.869 71.341C250.424 66.552 260.278 63.81 270.779 63.81C303.545 63.81 330.107 90.372 330.107 123.138C330.107 124.477 330.047 125.802 329.959 127.119C354.284 136.149 371.62 159.563 371.62 187.03C371.62 222.316 343.015 250.922 307.728 250.922H79.865C35.757 250.921 0 215.164 0 171.056C0 132.907 26.749 101.011 62.513 93.087Z" fill="#423F3E"/>
</svg>
