<svg viewBox="0 0 563 447" fill="none" xmlns="http://www.w3.org/2000/svg">
<path d="M444.689 251.468C432.762 194.93 373.004 162.441 319.09 182.814C301.319 142.008 260.597 113.558 213.309 113.619C155.177 113.739 107.227 157.017 99.5159 213.072C50.7218 205.237 6.68659 242.909 6.74683 292.214C6.86731 336.395 42.7099 372.138 86.8656 372.018L458.183 371.174C491.676 371.114 518.724 343.869 518.664 310.417C518.603 272.021 483.002 242.788 444.689 251.468Z" fill="#0089DC"/>
<path d="M442.942 249.298C431.015 192.76 371.257 160.271 317.343 180.644C299.572 139.838 258.85 111.388 211.562 111.449C153.43 111.569 105.48 154.847 97.8292 210.902C49.0351 203.067 4.99988 240.739 5.06012 290.044C5.1806 334.225 41.0232 369.968 85.1789 369.848L456.496 369.004C489.99 368.944 517.037 341.699 516.977 308.247C516.917 269.851 481.315 240.618 443.003 249.298H442.942Z" fill="url(#paint0_linear_432_3)"/>
<path d="M317.343 180.644C307.162 157.921 289.452 138.874 267.886 126.698C246.26 114.643 220.658 109.881 196.201 113.438C171.683 116.693 148.491 128.386 131.142 145.986C113.612 163.345 101.986 186.551 98.4919 211.023L98.3714 211.807L97.5883 211.686C86.2632 209.878 74.5767 210.42 63.5529 213.494C52.529 216.568 42.1678 222.053 33.3728 229.467C24.6381 236.881 17.4695 246.163 12.5299 256.591C7.59022 267.019 5.06016 278.531 4.93968 290.044C4.57824 266.898 14.819 243.692 32.6499 228.623C41.5052 221.029 51.9869 215.423 63.1914 212.229C74.396 209.034 86.2632 208.371 97.8293 210.179L96.9859 210.842C100.359 186.009 112.046 162.381 129.756 144.6C147.407 126.698 171.141 115.065 195.96 111.931C220.778 108.495 246.621 113.498 268.368 125.794C290.175 138.09 307.463 157.86 317.282 180.705L317.343 180.644Z" fill="#0CE1FF"/>
<path d="M374.871 100.478H321.017L339.872 32.3677C340.896 28.7512 344.149 26.2196 347.944 26.2196C351.679 26.2196 354.992 28.7512 356.016 32.3677L374.871 100.478V100.478ZM238.248 74.5602C234.995 72.6917 230.899 73.2944 228.248 75.9465C225.598 78.5986 225.055 82.6974 226.863 85.9522L261.621 147.433L299.692 109.339L238.248 74.5602V74.5602ZM184.755 187.697C181.141 188.721 178.611 191.976 178.611 195.773C178.611 199.51 181.141 202.826 184.755 203.85L252.826 222.716V168.83L184.755 187.697V187.697ZM226.863 305.534C224.995 308.789 225.598 312.888 228.248 315.54C230.899 318.192 234.995 318.735 238.248 316.926L299.692 282.148L261.621 244.054L226.863 305.534V305.534ZM339.932 359.059C340.957 362.675 344.209 365.207 348.005 365.207C351.739 365.207 355.053 362.675 356.077 359.059L374.932 290.948H321.077L339.932 359.059V359.059ZM457.701 316.926C460.954 318.795 465.05 318.192 467.701 315.54C470.351 312.888 470.893 308.789 469.086 305.534L434.328 244.054L396.257 282.148L457.701 316.926V316.926ZM511.194 203.79C514.808 202.765 517.338 199.51 517.338 195.713C517.338 191.976 514.808 188.661 511.194 187.636L443.123 168.77V222.656L511.194 203.79V203.79ZM469.086 85.9522C470.954 82.6974 470.351 78.5986 467.701 75.9465C465.05 73.2944 460.954 72.752 457.701 74.5602L396.257 109.339L434.328 147.433L469.086 85.9522Z" fill="url(#paint1_linear_432_3)"/>
<path d="M453.918 221.428C467.413 163.767 431.637 106.077 374.01 92.5741C316.383 79.071 258.726 114.868 245.231 172.529C231.736 230.191 267.512 287.881 325.14 301.384C382.767 314.887 440.423 279.09 453.918 221.428Z" fill="#FFA214"/>
<path d="M423.736 271.519C465.587 229.644 465.587 161.75 423.736 119.874C381.885 77.9985 314.031 77.9985 272.18 119.874C230.329 161.75 230.329 229.644 272.18 271.519C314.031 313.395 381.885 313.395 423.736 271.519Z" fill="url(#paint2_linear_432_3)"/>
<path d="M256.922 252.311C244.392 232.782 238.549 208.974 240.778 185.768C242.947 162.622 252.525 140.019 268.428 122.901C276.319 114.342 285.536 106.928 295.777 101.383C306.018 95.8374 317.102 91.9798 328.547 89.8701L337.161 88.6043L345.896 88.1824C351.679 87.9413 357.522 88.4235 363.245 89.2674C374.751 91.0154 385.895 94.6921 396.196 99.9963C375.414 89.6893 351.378 86.6755 328.728 90.8345C317.403 93.0044 306.439 96.9223 296.379 102.468C286.319 108.073 277.283 115.487 269.512 123.926C253.669 140.682 244.091 162.924 241.742 185.828C239.453 208.793 244.874 232.421 256.862 252.251L256.922 252.311Z" fill="#FFEB57"/>
<path d="M374.57 285.463C362.402 249.418 328.366 223.44 288.247 223.44C237.465 223.44 195.96 265.15 197.164 316.806C164.213 315.661 138.069 342.001 138.069 373.886C138.069 405.772 163.671 431.027 195.177 431.027H387.221C427.702 431.027 460.532 398.177 460.532 357.672C460.532 312.225 419.63 277.627 374.691 285.463H374.57Z" fill="#0098DC"/>
<path d="M373.064 283.835C360.896 247.791 326.86 221.812 286.741 221.812C235.959 221.812 194.454 263.523 195.658 315.178C162.707 314.033 136.563 340.373 136.563 372.259C136.563 403.843 162.165 429.4 193.671 429.4H385.715C426.196 429.4 459.026 396.55 459.026 356.045C459.026 310.597 418.124 276 373.185 283.835H373.064Z" fill="url(#paint3_linear_432_3)"/>
<path d="M356.137 253.939C343.848 239.835 327.222 229.769 309.21 225.248C300.235 222.957 290.837 222.053 281.62 222.777C272.404 223.259 263.187 225.188 254.573 228.623C237.164 235.133 222.345 247.489 211.863 262.679C206.743 270.394 202.767 278.832 199.996 287.693C197.466 296.614 196.321 305.896 196.321 315.178V315.902H195.598C182.406 315.359 169.093 319.578 158.671 327.716C148.19 335.732 140.539 347.546 137.708 360.626C140.238 347.486 147.527 335.31 158.069 326.932C168.611 318.493 182.165 314.093 195.658 314.515L194.936 315.178C194.875 305.775 195.96 296.373 198.429 287.211C201.14 278.169 205.116 269.55 210.297 261.654C220.778 245.983 236.32 233.626 253.97 227.116C262.765 223.681 272.103 221.812 281.5 221.39C290.897 220.788 300.355 221.752 309.451 224.163C327.704 228.804 344.149 239.593 356.077 253.939H356.137Z" fill="#0CF1FF"/>
<defs>
<linearGradient id="paint0_linear_432_3" x1="103.07" y1="156.836" x2="345.968" y2="381.941" gradientUnits="userSpaceOnUse">
<stop stop-color="#00B9F7"/>
<stop offset="1" stop-color="#0099DB"/>
</linearGradient>
<linearGradient id="paint1_linear_432_3" x1="226.622" y1="55.9352" x2="457.976" y2="322.156" gradientUnits="userSpaceOnUse">
<stop stop-color="#FFB41C"/>
<stop offset="1" stop-color="#FFA214"/>
</linearGradient>
<linearGradient id="paint2_linear_432_3" x1="275.691" y1="110.526" x2="433.446" y2="296.202" gradientUnits="userSpaceOnUse">
<stop stop-color="#FFC825"/>
<stop offset="1" stop-color="#FFB41C"/>
</linearGradient>
<linearGradient id="paint3_linear_432_3" x1="219.955" y1="270.412" x2="373.325" y2="449.026" gradientUnits="userSpaceOnUse">
<stop stop-color="#00CDF9"/>
<stop offset="1" stop-color="#00B4EB"/>
</linearGradient>
</defs>
</svg>
