<svg width="91" height="134" viewBox="0 0 91 134" fill="none" xmlns="http://www.w3.org/2000/svg">
<path d="M26.7681 44.9669C22.3101 50.3069 0.955078 77.0269 0.955078 98.7969C0.955078 123.102 12.8751 133.758 27.5781 133.758V44.5859C27.2781 44.5859 26.9791 44.7129 26.7681 44.9669Z" fill="#423F3E"/>
<path d="M54.2011 98.7969C54.2011 77.0269 32.8461 50.3069 28.3881 44.9669C28.1771 44.7129 27.8771 44.5859 27.5781 44.5859V133.758C27.8501 133.758 28.1181 133.746 28.3881 133.738C42.7151 133.352 54.2011 122.652 54.2011 98.7969Z" fill="#423F3E"/>
<path d="M64.9902 88.791C69.4492 83.449 90.8032 56.73 90.8032 34.961C90.8042 10.654 78.8842 0 64.1812 0V89.172C64.4792 89.172 64.7782 89.045 64.9902 88.791Z" fill="#423F3E"/>
<path d="M37.5571 34.961C37.5571 56.731 58.9121 83.449 63.3701 88.791C63.5811 89.045 63.8811 89.172 64.1801 89.172V0C63.9081 0 63.6391 0.012 63.3701 0.018C49.0421 0.406 37.5571 11.104 37.5571 34.961Z" fill="#423F3E"/>
</svg>
