<svg width="184" height="184" viewBox="0 0 184 184" fill="none" xmlns="http://www.w3.org/2000/svg">
<g clip-path="url(#clip0_420_2)">
<path d="M54.734 9.053C39.12 18.067 27.95 32.624 23.284 50.039C18.617 67.454 21.013 85.645 30.027 101.259C42.05 122.082 64.468 135.018 88.535 135.018C96.134 135.018 103.674 133.71 110.822 131.2L141.186 183.792L162.836 171.292L132.477 118.709C142.732 109.935 150.115 98.298 153.684 84.979C158.35 67.564 155.954 49.374 146.94 33.759C134.918 12.936 112.499 0 88.433 0C76.645 0 64.992 3.13 54.734 9.053ZM125.29 46.259C130.966 56.09 132.474 67.544 129.536 78.509C126.598 89.474 119.565 98.639 109.734 104.315C103.272 108.046 95.941 110.018 88.535 110.018C73.372 110.018 59.249 101.872 51.678 88.759C46.002 78.928 44.494 67.475 47.433 56.509C50.371 45.544 57.404 36.379 67.235 30.702C73.696 26.972 81.027 25 88.433 25C103.597 25 117.719 33.146 125.29 46.259Z" fill="#73777B"/>
</g>
<defs>
<clipPath id="clip0_420_2">
<rect width="183.792" height="183.792" fill="white"/>
</clipPath>
</defs>
</svg>
