<svg  viewBox="0 0 379 432" fill="none" xmlns="http://www.w3.org/2000/svg">
<path d="M370.557 300.301L333.216 278.782L362.624 266.551C371.18 262.983 375.26 253.13 371.69 244.579C368.121 236.028 358.261 231.951 349.705 235.518L296.612 257.603L223.573 215.472L296.612 173.34L349.705 195.425C358.261 198.993 368.121 194.972 371.69 186.365C375.26 177.814 371.18 167.96 362.624 164.393L333.216 152.161L370.557 130.642C378.603 125.999 381.323 115.749 376.733 107.708C372.087 99.6663 361.831 96.9481 353.785 101.535L316.444 123.054L320.524 91.5118C321.713 82.3379 315.197 73.9003 306.018 72.7111C296.782 71.5219 288.396 78.0342 287.206 87.208L279.839 144.233L206.801 186.365V102.101L252.528 67.2181C259.894 61.6119 261.311 51.0223 255.701 43.6606C250.091 36.2989 239.495 34.8832 232.129 40.4894L206.801 59.7998V16.8187C206.801 7.5316 199.264 0 189.972 0C180.679 0 173.143 7.5316 173.143 16.8187V59.8564L147.814 40.5461C140.448 34.9398 129.909 36.2989 124.242 43.7173C118.633 51.079 119.993 61.6119 127.415 67.2747L173.143 102.158V186.421L100.104 144.29L92.7376 87.2646C91.5477 78.0908 83.1615 71.5785 73.9254 72.7677C64.746 73.9569 58.2297 82.3946 59.4197 91.5684L63.4994 123.111L26.1584 101.592C18.1122 96.9481 7.85618 99.7229 3.2098 107.764C-1.43658 115.805 1.33991 126.055 9.38608 130.699L46.7271 152.218L17.3189 164.449C8.76279 168.017 4.68304 177.87 8.25282 186.421C11.8226 195.029 21.682 198.993 30.2381 195.482L83.3315 173.397L156.37 215.528L83.3315 257.66L30.2381 235.575C21.682 232.007 11.8226 236.084 8.25282 244.635C4.68304 253.186 8.70613 263.04 17.3189 266.607L46.7271 278.839L9.38608 300.358C1.33991 305.001 -1.37992 315.251 3.2098 323.292C7.85618 331.334 18.1122 334.052 26.1584 329.465L63.4994 307.946L59.4197 339.488C58.2297 348.662 64.746 357.1 73.9254 358.289C83.1049 359.478 91.5477 353.022 92.7376 343.792L100.104 286.767L173.143 244.635V328.899L127.415 363.782C120.049 369.388 118.633 379.978 124.242 387.339C129.852 394.701 140.448 396.117 147.814 390.511L173.143 371.2V414.238C173.143 423.525 180.679 431.057 189.972 431.057C199.264 431.057 206.801 423.525 206.801 414.238V371.2L232.072 390.511C239.439 396.117 249.978 394.758 255.644 387.339C261.254 379.978 259.894 369.445 252.471 363.782L206.744 328.899V244.635L279.783 286.767L287.149 343.792C288.339 353.022 296.782 359.478 305.961 358.289C315.141 357.1 321.657 348.662 320.467 339.488L316.387 307.946L353.728 329.465C361.774 334.109 372.03 331.334 376.677 323.292C381.323 315.251 378.547 305.001 370.5 300.358L370.557 300.301Z" fill="url(#paint0_linear_431_10)"/>
<defs>
<linearGradient id="paint0_linear_431_10" x1="43.7806" y1="59.5732" x2="323.968" y2="358.743" gradientUnits="userSpaceOnUse">
<stop stop-color="#93EAF8"/>
<stop offset="1" stop-color="#78D7FF"/>
</linearGradient>
</defs>
</svg>
