<svg viewBox="0 0 378 378" fill="none" xmlns="http://www.w3.org/2000/svg">
<g clip-path="url(#clip0_431_2)">
<path d="M219.044 82.7737H158.956L180.007 6.84671C181.131 2.81022 184.81 0 189 0C193.19 0 196.869 2.81022 197.993 6.84671L219.044 82.7737V82.7737ZM66.5255 53.854C62.8978 51.8102 58.2993 52.4234 55.3358 55.3869C52.3723 58.3504 51.7591 62.8978 53.8029 66.5766L92.5839 135.197L135.095 92.6861L66.4745 53.9051L66.5255 53.854ZM6.84672 180.007C2.81022 181.131 0 184.81 0 189C0 193.19 2.81022 196.869 6.84672 197.993L82.7737 219.044V158.905L6.84672 180.007ZM53.854 311.474C51.8102 315.102 52.4234 319.701 55.3869 322.664C58.3504 325.628 62.8978 326.241 66.5766 324.197L135.197 285.416L92.6861 242.905L53.9051 311.526L53.854 311.474ZM180.058 371.204C181.182 375.241 184.861 378.051 189.051 378.051C193.241 378.051 196.92 375.241 198.044 371.204L219.095 295.277H159.007L180.058 371.204V371.204ZM311.526 324.197C315.153 326.241 319.752 325.628 322.715 322.664C325.679 319.701 326.292 315.153 324.248 311.474L285.467 242.854L242.956 285.365L311.577 324.146L311.526 324.197ZM371.255 197.993C375.292 196.869 378.102 193.19 378.102 189C378.102 184.81 375.292 181.131 371.255 180.007L295.328 158.956V219.095L371.255 198.044V197.993ZM324.248 66.5255C326.292 62.8978 325.679 58.2993 322.715 55.3358C319.752 52.3723 315.204 51.7591 311.526 53.8029L242.905 92.5839L285.416 135.095L324.197 66.4744L324.248 66.5255Z" fill="url(#paint0_linear_431_2)"/>
<path d="M275.441 275.027C322.152 228.316 322.152 152.581 275.441 105.869C228.729 59.157 152.994 59.157 106.282 105.869C59.5703 152.581 59.5703 228.316 106.282 275.027C152.994 321.739 228.729 321.739 275.441 275.027Z" fill="#FFA214"/>
<path d="M273.588 273.579C320.3 226.867 320.3 151.133 273.588 104.421C226.877 57.7089 151.142 57.7089 104.43 104.421C57.718 151.133 57.718 226.867 104.43 273.579C151.142 320.291 226.877 320.291 273.588 273.579Z" fill="url(#paint1_linear_431_2)"/>
<path d="M87.4234 252.102C73.4234 230.336 66.9343 203.766 69.438 177.912C71.8394 152.11 82.5183 126.92 100.299 107.81C109.139 98.3066 119.358 90.0292 130.803 83.7957C142.248 77.6132 154.613 73.2701 167.387 70.9198L177.044 69.4891L186.752 69.0293C193.241 68.7738 199.73 69.2847 206.168 70.2044C218.993 72.1971 231.46 76.2336 242.956 82.2117C219.759 70.7154 192.934 67.3431 167.642 71.9928C155.022 74.3942 142.81 78.7884 131.518 84.9709C120.277 91.2044 110.212 99.4818 101.577 108.883C83.8978 127.584 73.219 152.416 70.6132 177.964C68.0584 203.562 74.0876 229.978 87.4745 252.051L87.4234 252.102Z" fill="#FFEB57"/>
</g>
<defs>
<linearGradient id="paint0_linear_431_2" x1="53.5985" y1="33.0584" x2="311.628" y2="330.226" gradientUnits="userSpaceOnUse">
<stop stop-color="#FFB41C"/>
<stop offset="1" stop-color="#FFA214"/>
</linearGradient>
<linearGradient id="paint1_linear_431_2" x1="108.337" y1="94.021" x2="284.307" y2="301.211" gradientUnits="userSpaceOnUse">
<stop stop-color="#FFC825"/>
<stop offset="1" stop-color="#FFB41C"/>
</linearGradient>
<clipPath id="clip0_431_2">
<rect width="378" height="378" fill="white"/>
</clipPath>
</defs>
</svg>
