<svg width="430" height="434" viewBox="0 0 430 434" fill="none" xmlns="http://www.w3.org/2000/svg">
<path d="M367.504 117.234C357.562 70.099 307.751 43.0141 262.81 59.9987C247.997 26.0296 214.054 2.26127 174.636 2.36177C126.181 2.46227 86.2113 38.5419 79.8343 85.2745C39.1116 78.6918 2.40588 110.148 2.50631 151.253C2.60674 188.086 32.4834 217.885 69.2895 217.784L378.802 217.081C406.721 217.03 429.266 194.317 429.216 166.429C429.166 134.419 399.49 110.048 367.555 117.284L367.504 117.234Z" fill="#0089DC"/>
<path d="M365.998 115.425C356.056 68.29 306.245 41.2051 261.304 58.1897C246.491 24.2206 212.597 0.452246 173.13 0.552747C124.674 0.653247 84.705 36.7329 78.3279 83.4655C37.6052 76.8827 0.899536 108.339 0.999961 149.444C1.10039 186.277 30.9771 216.076 67.7832 215.975L377.296 215.272C405.214 215.221 427.76 192.508 427.71 164.62C427.659 132.61 397.984 108.239 366.048 115.475L365.998 115.425Z" fill="url(#paint0_linear_431_38)"/>
<path d="M261.354 58.24C252.868 39.2956 238.105 23.4166 220.129 13.2661C202.053 3.16577 180.762 -0.80399 160.376 2.16077C139.939 4.87428 120.607 14.6228 106.146 29.2959C91.5339 43.7679 81.8428 63.1142 78.9304 83.5158L78.83 84.169L78.1772 84.0685C68.7372 82.561 58.9959 83.0133 49.8069 85.576C40.6179 88.1388 31.9813 92.7116 24.6502 98.8923C17.3693 105.073 11.394 112.812 7.27652 121.505C3.25949 130.198 1.10033 139.796 0.999903 149.444C0.698625 130.148 9.23483 110.802 24.0979 98.2391C31.4792 91.9076 40.2162 87.2343 49.5558 84.571C58.8954 81.9078 68.7874 81.355 78.4283 82.8625L77.7253 83.4153C80.5372 62.7122 90.2785 43.0142 105.041 28.1904C119.703 13.2661 139.487 3.51752 160.175 0.904516C180.863 -1.95974 202.404 2.21102 220.531 12.4621C238.708 22.7131 253.119 39.1951 261.304 58.24H261.354Z" fill="#0CE1FF"/>
<path d="M315.685 132.108C305.542 102.058 277.171 80.4003 243.729 80.4003C201.4 80.4003 166.803 115.173 167.808 158.238C140.341 157.283 118.549 179.242 118.549 205.825C118.549 232.407 139.889 253.462 166.15 253.462H326.229C359.972 253.462 387.339 226.075 387.339 192.307C387.339 154.419 353.244 125.575 315.785 132.108H315.685Z" fill="#0098DC"/>
<path d="M314.429 130.701C304.286 100.651 275.916 78.9933 242.474 78.9933C200.145 78.9933 165.548 113.766 166.552 156.831C139.086 155.876 117.293 177.835 117.293 204.418C117.293 231 138.634 252.055 164.895 252.055H324.974C358.717 252.055 386.083 224.669 386.083 190.9C386.083 153.012 351.989 124.168 314.53 130.701H314.429Z" fill="url(#paint1_linear_431_38)"/>
<path d="M300.269 105.777C290.026 94.0181 276.167 85.6263 261.153 81.8575C253.672 79.948 245.838 79.1943 238.156 79.7973C230.473 80.1993 222.791 81.8073 215.61 84.6715C201.099 90.0986 188.746 100.4 180.009 113.063C175.741 119.495 172.427 126.53 170.117 133.917C168.008 141.354 167.054 149.092 167.054 156.831V157.434H166.452C155.455 156.982 144.358 160.499 135.671 167.283C126.934 173.966 120.557 183.815 118.197 194.719C120.306 183.765 126.382 173.614 135.169 166.63C143.956 159.595 155.254 155.926 166.502 156.278L165.899 156.831C165.849 148.992 166.753 141.153 168.812 133.515C171.071 125.977 174.385 118.791 178.704 112.209C187.441 99.1436 200.396 88.8423 215.108 83.4153C222.439 80.551 230.222 78.9933 238.055 78.6415C245.889 78.139 253.772 78.943 261.354 80.953C276.569 84.8223 290.277 93.8171 300.219 105.777H300.269Z" fill="#0CF1FF"/>
<path d="M239.712 427.378L252.065 332.355C252.517 328.938 249.855 325.923 246.391 325.923H178.704C174.486 325.923 171.724 321.551 173.582 317.732L242.273 174.167C245.085 168.288 253.923 170.951 253.069 177.383L240.717 272.406C240.265 275.823 242.926 278.838 246.391 278.838H314.078C318.296 278.838 321.057 283.21 319.199 287.029L250.508 430.594C247.696 436.473 238.859 433.81 239.712 427.378Z" fill="#FFA214"/>
<path d="M238.708 426.071L251.06 331.048C251.512 327.631 248.851 324.616 245.386 324.616H177.699C173.481 324.616 170.72 320.244 172.577 316.425L241.269 172.861C244.081 166.981 252.918 169.645 252.065 176.077L239.712 271.1C239.26 274.517 241.922 277.532 245.386 277.532H313.073C317.291 277.532 320.053 281.903 318.195 285.722L249.504 429.287C246.692 435.166 237.854 432.503 238.708 426.071V426.071Z" fill="url(#paint2_linear_431_38)"/>
<path d="M177.699 324.616C173.783 324.867 170.569 320.294 172.276 316.576L176.946 306.325L186.537 285.923L205.718 245.17L225.402 204.669L235.243 184.418L240.265 174.368C241.018 172.71 241.972 170.8 243.83 170.097C245.587 169.293 247.696 169.544 249.303 170.499C247.646 169.594 245.587 169.494 243.93 170.298C242.173 171.102 241.369 172.86 240.666 174.569L235.997 184.82L226.406 205.222L207.224 245.974L187.541 286.476L177.699 306.727L172.678 316.777C170.971 320.144 173.783 324.716 177.749 324.616H177.699Z" fill="#FFEB57"/>
<defs>
<linearGradient id="paint0_linear_431_38" x1="82.6965" y1="38.3911" x2="285.243" y2="226.026" gradientUnits="userSpaceOnUse">
<stop stop-color="#00B9F7"/>
<stop offset="1" stop-color="#0099DB"/>
</linearGradient>
<linearGradient id="paint1_linear_431_38" x1="186.737" y1="119.567" x2="314.602" y2="268.454" gradientUnits="userSpaceOnUse">
<stop stop-color="#00CDF9"/>
<stop offset="1" stop-color="#00B4EB"/>
</linearGradient>
<linearGradient id="paint2_linear_431_38" x1="202.755" y1="247.985" x2="293.371" y2="360.731" gradientUnits="userSpaceOnUse">
<stop stop-color="#FFC825"/>
<stop offset="1" stop-color="#FFB41C"/>
</linearGradient>
</defs>
</svg>
