<svg width="73" height="63" viewBox="0 0 73 63" fill="none" xmlns="http://www.w3.org/2000/svg">
<path d="M54.88 26.8799H25C23.55 26.8799 22.37 25.6999 22.37 24.2499C22.37 22.7999 23.55 21.6199 25 21.6199H54.88C59.07 21.6199 62.48 18.2099 62.48 14.0199C62.48 9.82991 59.07 6.41991 54.88 6.41991C53.43 6.41991 52.25 5.23991 52.25 3.78991C52.25 2.33991 53.43 1.15991 54.88 1.15991C61.97 1.15991 67.73 6.92991 67.73 14.0099C67.73 21.0899 61.96 26.8599 54.88 26.8599V26.8799ZM72.29 35.5099C72.29 34.0599 71.11 32.8799 69.66 32.8799H2.78002C1.33002 32.8799 0.150024 34.0599 0.150024 35.5099C0.150024 36.9599 1.33002 38.1399 2.78002 38.1399H69.67C71.12 38.1399 72.3 36.9599 72.3 35.5099H72.29ZM55.57 53.1599C55.57 48.1899 51.52 44.1399 46.55 44.1399H15.59C14.14 44.1399 12.96 45.3199 12.96 46.7699C12.96 48.2199 14.14 49.3999 15.59 49.3999H46.55C48.63 49.3999 50.31 51.0899 50.31 53.1599C50.31 55.2299 48.62 56.9199 46.55 56.9199C45.1 56.9199 43.92 58.0999 43.92 59.5499C43.92 60.9999 45.1 62.1799 46.55 62.1799C51.52 62.1799 55.57 58.1299 55.57 53.1599V53.1599Z" fill="#70C4FF"/>
<path d="M54.74 26.43H24.85C23.4 26.43 22.22 25.25 22.22 23.8C22.22 22.35 23.4 21.17 24.85 21.17H54.73C58.92 21.17 62.33 17.76 62.33 13.57C62.33 9.37996 58.92 5.96996 54.73 5.96996C53.28 5.96996 52.1 4.78996 52.1 3.33996C52.1 1.88996 53.28 0.709961 54.73 0.709961C61.82 0.709961 67.58 6.47996 67.58 13.56C67.58 20.64 61.81 26.41 54.73 26.41L54.74 26.43ZM72.15 35.06C72.15 33.61 70.97 32.43 69.52 32.43H2.63C1.18 32.44 0 33.61 0 35.06C0 36.51 1.18 37.69 2.63 37.69H69.52C70.97 37.69 72.15 36.51 72.15 35.06V35.06ZM55.43 52.71C55.43 47.74 51.38 43.69 46.41 43.69H15.44C13.99 43.69 12.81 44.87 12.81 46.32C12.81 47.77 13.99 48.95 15.44 48.95H46.4C48.48 48.95 50.16 50.64 50.16 52.71C50.16 54.78 48.47 56.47 46.4 56.47C44.95 56.47 43.77 57.65 43.77 59.1C43.77 60.55 44.95 61.73 46.4 61.73C51.37 61.73 55.42 57.68 55.42 52.71H55.43Z" fill="url(#paint0_linear_501_8)"/>
<defs>
<linearGradient id="paint0_linear_501_8" x1="16.45" y1="1.85996" x2="66.53" y2="61.34" gradientUnits="userSpaceOnUse">
<stop stop-color="#93EAF8"/>
<stop offset="1" stop-color="#78D7FF"/>
</linearGradient>
</defs>
</svg>
