<svg viewBox="0 0 330 330" fill="none" xmlns="http://www.w3.org/2000/svg">
<g clip-path="url(#clip0_422_2)">
<path d="M15 240H115.01C134.304 240 150 255.702 150 275.003C150 288.786 138.789 300 125.009 300C115.64 300 108.018 292.374 108.018 283.001C108.018 274.717 101.302 268.001 93.018 268.001C84.734 268.001 78.018 274.717 78.018 283.001C78.018 308.916 99.098 330 125.009 330C155.331 330 180 305.328 180 275.003C180 239.16 150.846 210 115.01 210H15C6.716 210 0 216.716 0 225C0 233.284 6.716 240 15 240Z" fill="#423F3E"/>
<path d="M15 170H237.222C288.38 170 330 128.379 330 77.22C330 34.641 295.358 0 252.778 0C217.058 0 187.999 29.059 187.999 64.776C187.999 95.005 212.592 119.599 242.819 119.599C251.103 119.599 257.819 112.883 257.819 104.599C257.819 96.315 251.103 89.599 242.819 89.599C229.133 89.599 217.999 78.463 217.999 64.776C217.999 45.6 233.601 30 252.778 30C278.816 30 300 51.183 300 77.22C300 111.837 271.838 140 237.222 140H15C6.716 140 0 146.716 0 155C0 163.284 6.716 170 15 170Z" fill="#423F3E"/>
</g>
<defs>
<clipPath id="clip0_422_2">
<rect width="330" height="330" fill="white"/>
</clipPath>
</defs>
</svg>
